<?xml version="1.0" encoding="utf-8"?>
<!-- Generator: Adobe Illustrator 21.1.0, SVG Export Plug-In . SVG Version: 6.00 Build 0)  -->
<svg version="1.1" id="Layer_1" xmlns="http://www.w3.org/2000/svg" xmlns:xlink="http://www.w3.org/1999/xlink" x="0px" y="0px"
	 viewBox="0 0 600 600" style="enable-background:new 0 0 600 600;" xml:space="preserve">
<style type="text/css">
	.st0{display:none;}
	.st1{display:inline;fill:#999999;stroke:#4D4D4D;stroke-width:4.7683;stroke-miterlimit:10;}
	.st2{display:inline;fill:#999999;stroke:#4D4D4D;stroke-width:4;stroke-miterlimit:10;}
	.st3{display:inline;}
	.st4{fill:#FFFFFF;}
	.st5{fill:#4D4D4D;}
	.st6{display:inline;fill:#FFFFFF;stroke:#4D4D4D;stroke-width:4;stroke-miterlimit:10;}
	.st7{fill:#999999;}
	.st8{display:inline;fill:#808080;}
	.st9{fill:#FFFFFF;stroke:#FFFFFF;stroke-width:40.048;stroke-miterlimit:10;}
</style>
<g class="st0">
	<rect x="282" y="147" class="st1" width="65" height="27"/>
	<rect x="397" y="422" transform="matrix(-0.9235 0.3837 -0.3837 -0.9235 974.7466 705.5538)" class="st2" width="40" height="56"/>
	<rect x="199" y="423" transform="matrix(0.9235 0.3837 -0.3837 0.9235 189.8108 -49.5097)" class="st2" width="40" height="56"/>
	<circle class="st2" cx="313.5" cy="317.5" r="147.5"/>
	<g class="st3">
		<path class="st4" d="M313.5,441C244.8,441,189,385.2,189,316.5c0-68.7,55.9-124.5,124.5-124.5c68.7,0,124.5,55.9,124.5,124.5
			C438,385.2,382.2,441,313.5,441z"/>
		<path class="st5" d="M313.5,194c32.7,0,63.5,12.7,86.7,35.9c23.1,23.1,35.9,53.9,35.9,86.7s-12.7,63.5-35.9,86.7
			C377,426.3,346.2,439,313.5,439s-63.5-12.7-86.7-35.9C203.7,380,191,349.2,191,316.5s12.7-63.5,35.9-86.7
			C250,206.7,280.8,194,313.5,194 M313.5,190C243.6,190,187,246.6,187,316.5S243.6,443,313.5,443S440,386.4,440,316.5
			S383.4,190,313.5,190L313.5,190z"/>
	</g>
	<line class="st6" x1="313.5" y1="199" x2="313.5" y2="216.4"/>
	<line class="st6" x1="430.8" y1="316.5" x2="410.4" y2="316.5"/>
	<line class="st6" x1="313.5" y1="433.8" x2="313.5" y2="418"/>
	<line class="st6" x1="193.6" y1="316.5" x2="211.4" y2="316.5"/>
	<g class="st3">
		<polygon class="st7" points="313.8,230.2 308.9,326.4 318.8,326.4 		"/>
	</g>
	<g class="st3">
		<polygon class="st7" points="395.2,323.3 310.2,319.7 310.2,326.9 		"/>
	</g>
	<path class="st2" d="M376.8,169.5c16.5-20.8,46.7-24.2,67.4-7.7c20.8,16.5,24.2,46.7,7.7,67.4L376.8,169.5z"/>
	<path class="st2" d="M245.4,173.5c-16.5-20.8-46.7-24.2-67.4-7.7s-24.2,46.7-7.7,67.4L245.4,173.5z"/>
	<circle class="st8" cx="221" cy="268" r="4"/>
	<circle class="st8" cx="408" cy="266" r="4"/>
	<circle class="st8" cx="364" cy="222" r="4"/>
	<circle class="st8" cx="408" cy="364" r="4"/>
	<circle class="st8" cx="364" cy="408" r="4"/>
	<circle class="st8" cx="217" cy="364" r="4"/>
	<circle class="st8" cx="267" cy="410" r="4"/>
	<circle class="st8" cx="260" cy="222" r="4"/>
</g>
<circle class="st9" cx="242.8" cy="244.8" r="137.2"/>
<path class="st4" d="M355.4,418.2l-2.5,0.9c-14.5,5.6-30.8-1.7-36.4-16.3l-15.3-40l55.1-21l15.3,40
	C377.2,396.4,369.9,412.6,355.4,418.2z"/>
<path class="st4" d="M130.4,418.2l2.5,0.9c14.5,5.6,30.8-1.7,36.4-16.3l15.3-40l-55.1-21l-15.3,40
	C108.6,396.4,115.9,412.6,130.4,418.2z"/>
<path class="st4" d="M264.2,90h-43v-3.8c0-10,8.1-18.2,18.2-18.2h6.6c10,0,18.2,8.1,18.2,18.2V90z"/>
<path class="st4" d="M133,174.5c-25.4,0-46-20.6-46-46s20.6-46,46-46s46,20.6,46,46"/>
<path class="st4" d="M355,174.5c25.4,0,46-20.6,46-46s-20.6-46-46-46s-46,20.6-46,46"/>
<path class="st4" d="M259,267h-36v-87c0-9.9,8.1-18,18-18h0c9.9,0,18,8.1,18,18V267z"/>
<path class="st4" d="M241,267h49.3c7.5,0,13.7-6.9,13.7-15.5v0c0-8.6-6.1-15.5-13.7-15.5H241"/>
</svg>
